<?xml version="1.0" encoding="UTF-8" standalone="no"?>
<svg width="236px" height="121px" viewBox="0 0 236 121" version="1.1" xmlns="http://www.w3.org/2000/svg" xmlns:xlink="http://www.w3.org/1999/xlink">
    <!-- Generator: Sketch 40.2 (33826) - http://www.bohemiancoding.com/sketch -->
    <title>Lorem_Ipsum</title>
    <desc>Created with Sketch.</desc>
    <defs></defs>
    <g id="Page-1" stroke="none" stroke-width="1" fill="none" fill-rule="evenodd">
        <g id="Lorem_Ipsum">
            <path d="M227.762,87.576 C227.584,87.456 227.387,87.356 227.163,87.279 C226.946,87.21 226.719,87.144 226.492,87.092 C226.26,87.038 226.035,86.988 225.812,86.94 C225.587,86.897 225.392,86.835 225.214,86.767 C225.04,86.695 224.899,86.606 224.792,86.497 C224.69,86.383 224.635,86.24 224.635,86.06 C224.635,85.875 224.669,85.715 224.747,85.585 C224.82,85.458 224.918,85.358 225.038,85.281 C225.161,85.208 225.301,85.156 225.456,85.12 C225.61,85.088 225.772,85.072 225.937,85.072 C226.333,85.072 226.666,85.168 226.923,85.352 C227.18,85.538 227.326,85.84 227.372,86.258 L228.103,86.258 C228.089,85.938 228.03,85.663 227.918,85.433 C227.81,85.204 227.658,85.013 227.464,84.861 C227.274,84.708 227.051,84.597 226.794,84.527 C226.54,84.454 226.264,84.42 225.967,84.42 C225.704,84.42 225.442,84.454 225.197,84.522 C224.94,84.59 224.719,84.693 224.522,84.829 C224.32,84.967 224.161,85.14 224.042,85.356 C223.926,85.57 223.865,85.825 223.865,86.115 C223.865,86.378 223.919,86.601 224.024,86.776 C224.128,86.952 224.272,87.094 224.447,87.206 C224.622,87.315 224.82,87.408 225.04,87.471 C225.265,87.542 225.492,87.599 225.719,87.649 C225.951,87.704 226.171,87.751 226.399,87.801 C226.619,87.851 226.815,87.913 226.99,87.995 C227.165,88.069 227.307,88.173 227.416,88.296 C227.517,88.419 227.574,88.581 227.574,88.783 C227.574,88.994 227.528,89.167 227.442,89.301 C227.355,89.437 227.242,89.543 227.101,89.622 C226.96,89.701 226.801,89.755 226.626,89.79 C226.454,89.821 226.278,89.837 226.103,89.837 C225.887,89.837 225.676,89.81 225.471,89.755 C225.267,89.703 225.087,89.617 224.933,89.5 C224.779,89.389 224.654,89.247 224.56,89.072 C224.465,88.894 224.418,88.685 224.418,88.442 L223.683,88.442 C223.683,88.794 223.75,89.098 223.875,89.353 C224.003,89.612 224.174,89.821 224.394,89.987 C224.613,90.153 224.867,90.276 225.158,90.358 C225.447,90.439 225.755,90.483 226.076,90.483 C226.342,90.483 226.608,90.449 226.878,90.387 C227.144,90.326 227.387,90.223 227.603,90.087 C227.819,89.949 227.994,89.769 228.134,89.553 C228.271,89.333 228.341,89.072 228.341,88.762 C228.341,88.476 228.29,88.238 228.185,88.046 C228.076,87.858 227.937,87.704 227.762,87.576 L227.762,87.576 Z M234.013,84.556 L232.182,89.428 L230.352,84.556 L229.298,84.556 L229.298,90.353 L230.032,90.353 L230.032,85.531 L230.05,85.531 L231.854,90.353 L232.511,90.353 L234.318,85.531 L234.334,85.531 L234.334,90.353 L235.068,90.353 L235.068,84.556 L234.013,84.556 L234.013,84.556 Z M222.467,105.307 C220.545,105.041 220.441,104.507 220.441,100.665 L220.441,91.489 C220.441,87.805 218.359,84.875 214.094,84.875 C211.585,84.875 208.972,86.099 206.834,87.594 C206.35,87.913 205.982,88.128 205.505,88.017 C204.005,85.831 202.514,84.875 199.847,84.875 C197.282,84.875 194.775,86.154 192.75,87.594 C192.377,87.594 192.165,87.324 192.165,87.005 C192.165,86.526 192.165,85.724 192.271,84.498 C192.165,84.231 191.896,84.125 191.68,84.125 C190.615,84.926 187.572,86.313 186.347,86.74 C186.084,86.899 186.084,87.485 186.292,87.699 L186.772,88.017 C188.212,88.98 188.212,89.247 188.212,91.328 L188.212,100.665 C188.212,104.507 188.163,105.041 186.184,105.307 L185.086,105.443 C185.152,105.054 185.056,104.571 184.854,104.4 C184.104,104.559 183.416,104.668 182.773,104.668 C181.28,104.668 181.119,103.066 181.119,98.851 L181.119,89.887 C181.119,87.913 181.171,86.26 181.28,85.247 C181.228,85.034 181.066,84.926 180.798,84.875 C179.624,85.406 176.69,85.781 174.556,85.831 C174.129,86.044 174.129,86.792 174.501,87.005 L175.195,87.274 C176.796,87.913 177.171,88.017 177.171,91.489 L177.171,100.24 C177.171,101.894 176.796,102.692 176.101,103.333 C174.926,104.348 173.218,104.932 171.78,104.932 C167.726,104.932 166.819,102.48 166.819,98.801 L166.819,89.887 C166.819,87.274 166.874,86.154 166.978,85.247 C166.926,85.034 166.764,84.926 166.444,84.875 C165.274,85.297 163.19,85.781 160.739,85.831 C160.364,85.995 160.309,86.74 160.629,87.005 L161.27,87.274 C162.873,87.969 162.873,88.449 162.873,91.809 L162.873,100.719 C162.873,105.041 164.631,107.388 169.326,107.388 C172.475,107.388 175.088,105.627 176.69,104.612 C177.01,104.612 177.171,104.879 177.171,105.362 L177.171,107.549 C177.279,107.761 177.546,107.922 177.81,107.922 C179.591,106.927 182.6,106.395 184.679,105.972 C184.655,106.316 184.782,106.702 185.013,106.799 C186.666,106.695 188.27,106.638 190.19,106.638 C192.055,106.638 193.603,106.695 195.043,106.799 C195.418,106.638 195.527,105.734 195.15,105.466 L194.189,105.307 C192.271,104.987 192.165,104.507 192.165,100.665 L192.165,92.396 C192.165,90.685 192.428,89.994 192.961,89.355 C193.764,88.389 195.254,87.433 197.445,87.433 C200.751,87.433 202.356,89.355 202.356,92.927 L202.356,100.665 C202.356,104.507 202.298,104.987 200.327,105.307 L199.368,105.466 C198.991,105.734 199.102,106.638 199.469,106.799 C200.965,106.695 202.403,106.638 204.324,106.638 C206.194,106.638 207.741,106.695 209.34,106.799 C209.717,106.638 209.825,105.734 209.452,105.466 L208.33,105.307 C206.41,105.041 206.302,104.507 206.302,100.665 L206.302,92.504 C206.302,90.637 206.463,90.101 207.102,89.298 C207.85,88.339 209.501,87.433 211.529,87.433 C214.892,87.433 216.492,89.298 216.492,92.927 L216.492,100.665 C216.492,104.507 216.439,104.987 214.464,105.307 L213.501,105.466 C213.128,105.734 213.238,106.638 213.61,106.799 C215.105,106.695 216.548,106.638 218.468,106.638 C220.338,106.638 221.883,106.695 223.642,106.799 C224.015,106.638 224.122,105.734 223.751,105.466 L222.467,105.307 L222.467,105.307 Z M153.958,94.102 C152.09,93.035 149.85,91.86 149.85,89.673 C149.85,87.753 151.186,86.419 153.267,86.419 C155.458,86.419 157.055,87.969 157.961,90.317 C158.228,90.637 159.03,90.526 159.241,90.153 C159.241,88.712 158.871,87.005 158.391,85.831 C157.907,85.406 155.937,84.875 153.694,84.875 C149.638,84.875 146.437,87.06 146.437,90.955 C146.437,93.886 148.623,95.756 151.722,97.52 C153.694,98.64 155.828,99.969 155.828,102.425 C155.828,104.72 154.173,105.841 152.251,105.841 C149.211,105.841 147.504,103.278 146.595,100.346 C146.328,100.026 145.637,100.079 145.371,100.399 C145.264,102.16 145.584,104.773 146.009,105.791 C147.343,106.854 149.211,107.388 151.722,107.388 C155.667,107.388 159.405,105.362 159.405,101.305 C159.405,97.52 156.787,95.705 153.958,94.102 L153.958,94.102 Z M133.31,105.627 C132.192,105.627 130.54,105.252 129.471,104.453 C128.402,103.598 127.87,102.958 127.87,101.25 L127.87,92.076 C127.87,90.317 128.027,89.514 128.51,88.928 C129.097,88.288 130.749,87.433 133.043,87.433 C137.845,87.433 140.247,91.757 140.247,96.022 C140.247,101.574 137.688,105.627 133.31,105.627 L133.31,105.627 Z M135.711,84.875 C132.298,84.875 128.935,87.06 128.245,87.38 C127.87,87.38 127.763,87.06 127.763,86.685 C127.763,85.995 127.87,85.19 127.976,84.231 C127.87,83.967 127.656,83.859 127.338,83.859 C125.95,84.875 123.441,86.154 122.055,86.74 C121.787,86.899 121.787,87.485 122.002,87.699 L122.482,88.017 C123.922,88.98 123.922,89.247 123.922,91.328 L123.922,114.273 C123.922,118.111 123.866,118.648 121.894,118.911 L120.776,119.073 C120.398,119.34 120.505,120.248 120.877,120.407 C122.373,120.299 123.97,120.248 125.895,120.248 C127.763,120.248 129.308,120.299 131.872,120.407 C132.244,120.248 132.353,119.34 131.98,119.073 L129.897,118.806 C127.976,118.539 127.87,118.061 127.87,114.273 L127.87,108.668 C127.87,107.549 128.138,107.279 128.615,107.174 C129.097,107.279 130.589,107.388 131.551,107.388 C139.126,107.388 144.571,102.053 144.571,94.634 C144.571,89.247 141.099,84.875 135.711,84.875 L135.711,84.875 Z M115.17,78.896 C116.668,78.896 117.999,78.042 117.999,76.124 C117.999,74.626 116.929,73.347 115.334,73.347 C113.729,73.347 112.45,74.465 112.45,76.226 C112.45,77.668 113.516,78.896 115.17,78.896 L115.17,78.896 Z M120.667,105.466 L119.546,105.307 C117.626,105.041 117.52,104.507 117.52,100.665 L117.52,91.059 C117.52,88.872 117.626,86.313 117.731,84.445 C117.679,84.231 117.467,84.125 117.197,84.125 C115.972,84.926 112.932,86.313 111.702,86.74 C111.437,86.899 111.437,87.485 111.65,87.699 L112.132,88.017 C113.57,88.98 113.57,89.247 113.57,91.328 L113.57,100.665 C113.57,104.507 113.516,105.041 111.543,105.307 L110.423,105.466 C110.048,105.734 110.155,106.638 110.527,106.799 C112.025,106.695 113.625,106.638 115.545,106.638 C117.41,106.638 118.96,106.695 120.564,106.799 C120.935,106.638 121.04,105.734 120.667,105.466 L120.667,105.466 Z M99.736,84.275 C98.271,84.275 96.98,84.588 95.871,85.168 C94.712,85.791 93.692,86.633 92.845,87.788 L92.756,87.788 C91.822,85.563 89.645,84.275 86.843,84.275 C83.064,84.275 81.151,86.413 80.352,87.522 L80.172,87.522 L79.861,84.765 L73.148,84.765 C73.237,86.81 73.326,89.298 73.326,92.234 L73.326,106.638 L81.106,106.638 L81.106,94.148 C81.106,93.612 81.151,93.035 81.331,92.504 C81.64,91.787 82.351,90.721 83.772,90.721 C85.598,90.721 86.353,92.321 86.353,94.77 L86.353,106.638 L94.133,106.638 L94.133,94.191 C94.133,93.703 94.178,93.035 94.358,92.591 C94.712,91.523 95.512,90.721 96.803,90.721 C98.58,90.721 99.382,92.28 99.382,94.991 L99.382,106.638 L107.162,106.638 L107.162,93.791 C107.162,87.699 104.447,84.275 99.736,84.275 L99.736,84.275 Z M57.985,93.08 C58.119,91.701 59.056,89.521 61.41,89.521 C63.943,89.521 64.522,91.834 64.522,93.08 L57.985,93.08 L57.985,93.08 Z M61.812,84.275 C53.761,84.275 50.47,90.857 50.47,95.924 C50.47,102.862 54.831,107.084 62.521,107.084 C65.234,107.084 68.077,106.732 70.706,105.707 L69.679,100.374 C67.727,100.997 65.766,101.216 63.723,101.216 C60.878,101.216 58.344,100.24 58.076,98.506 L71.592,98.506 C71.724,97.969 71.905,96.77 71.905,95.482 C71.905,89.478 68.881,84.275 61.812,84.275 L61.812,84.275 Z M42.356,88.721 L42.179,88.721 L41.868,84.765 L35.019,84.765 C35.153,86.59 35.196,88.678 35.196,92.143 L35.196,106.638 L43.245,106.638 L43.245,95.838 C43.245,95.302 43.29,94.811 43.333,94.457 C43.778,92.682 45.38,91.701 47.737,91.701 C48.58,91.701 49.203,91.787 49.782,91.925 L49.782,84.411 C49.203,84.275 48.894,84.275 48.18,84.275 C46.269,84.275 43.51,85.385 42.356,88.721 L42.356,88.721 Z M21.994,101.483 L21.949,101.483 C19.501,101.483 18.436,98.997 18.436,95.705 C18.436,92.811 19.326,89.923 21.994,89.923 C24.348,89.923 25.328,92.682 25.328,95.705 C25.328,99.215 24.171,101.483 21.994,101.483 L21.994,101.483 Z M22.214,84.275 C14.745,84.275 10.165,88.901 10.165,95.879 C10.165,102.994 15.234,107.131 21.773,107.131 L21.814,107.131 C27.906,107.131 33.599,103.439 33.599,95.482 C33.599,88.901 29.061,84.275 22.214,84.275 L22.214,84.275 Z M0.473,106.638 L8.521,106.638 L8.521,75.029 L0.473,75.029 L0.473,106.638 Z" id="Fill-1" fill="#17170D"></path>
            <path d="M175.597,48.576 C175.597,48.576 167.742,47.904 163.774,47.904 C159.693,47.904 156.292,48.017 152.89,48.242 C152.092,47.904 151.87,45.977 152.663,45.409 L155.271,45.07 C159.463,44.502 159.58,43.371 159.58,35.206 L159.58,7.391 C156.462,9.377 153.46,11.763 150.666,14.556 C134.862,30.359 131.76,52.883 143.74,64.856 C152.168,73.284 165.805,74.24 178.656,68.569 L178.656,55.601 C178.656,51.18 178.147,49.004 175.597,48.576" id="Fill-2" fill="#1A1918"></path>
            <path d="M200.965,7.632 C192.959,-0.378 180.24,-1.637 167.966,3.124 L167.966,35.206 C167.966,43.371 168.353,44.752 172.275,45.07 C172.275,45.07 183.922,41.891 186.366,40.296 C186.933,40.296 187.388,40.524 187.501,40.978 C187.274,44.943 187.044,50.387 187.044,55.037 L187.044,63.815 C189.476,62.104 191.828,60.147 194.043,57.934 C209.845,42.125 212.945,19.607 200.965,7.632" id="Fill-3" fill="#1A1918"></path>
            <path d="M182.057,29.185 C178.542,29.185 176.277,26.578 176.277,23.518 C176.277,19.775 178.997,17.396 182.4,17.396 C185.799,17.396 188.067,20.113 188.067,23.29 C188.067,27.371 185.234,29.185 182.057,29.185" id="Fill-4" fill="#00A3DB"></path>
        </g>
    </g>
</svg>